<?xml version="1.0" encoding="utf-8"?>
<!-- Generator: Adobe Illustrator 16.0.0, SVG Export Plug-In . SVG Version: 6.00 Build 0)  -->
<!DOCTYPE svg PUBLIC "-//W3C//DTD SVG 1.1//EN" "http://www.w3.org/Graphics/SVG/1.1/DTD/svg11.dtd">
<svg version="1.1" id="Layer_1" xmlns="http://www.w3.org/2000/svg" xmlns:xlink="http://www.w3.org/1999/xlink" x="0px" y="0px"
	 width="300px" height="248.648px" viewBox="0 0 300 248.648" enable-background="new 0 0 300 248.648" xml:space="preserve">
<g>
	<path fill-rule="evenodd" clip-rule="evenodd" fill="#B5B5B5" d="M149.998,2.12c-67.491,0-122.203,54.712-122.203,122.203
		c0,67.492,54.712,122.205,122.203,122.205c67.492,0,122.207-54.713,122.207-122.205C272.205,56.832,217.49,2.12,149.998,2.12z
		 M150.067,179.929h-19.573v-49.076l-39.543,49.076H64.633l36.502-43.044L62.65,69.417h87.417V179.929z M214.492,179.861
		l-26.648-51.838l-15.869,18.461v33.377h-19.573V69.407h19.573v49.049l39.545-49.049h26.314l-36.501,43.021l38.485,67.433H214.492z"
		/>
	<polygon fill-rule="evenodd" clip-rule="evenodd" fill="#B5B5B5" points="114.624,121.282 130.494,102.813 130.494,89.068 
		98.072,89.068 	"/>
</g>
</svg>
