<svg xmlns="http://www.w3.org/2000/svg" width="300" height="300" viewBox="0 0 300 300"><g fill-rule="evenodd" clip-rule="evenodd" fill="#B5B5B5"><path d="M149.999 27.796c-67.491 0-122.203 54.712-122.203 122.203 0 67.492 54.712 122.205 122.203 122.205 67.492 0 122.207-54.713 122.207-122.205-.001-67.491-54.716-122.203-122.207-122.203zm.068 177.808h-19.573v-49.076l-39.543 49.076H64.633l36.502-43.044-38.484-67.467h87.417v110.511zm64.425-.067l-26.648-51.838-15.869 18.461v33.377h-19.573V95.083h19.573v49.049l39.545-49.049h26.314l-36.501 43.021 38.485 67.433h-25.326z"/><path d="M114.624 146.958l15.87-18.47v-13.744H98.073z"/></g></svg>