<?xml version="1.0" encoding="utf-8"?>
<!-- Generator: Adobe Illustrator 16.0.0, SVG Export Plug-In . SVG Version: 6.00 Build 0)  -->
<!DOCTYPE svg PUBLIC "-//W3C//DTD SVG 1.1//EN" "http://www.w3.org/Graphics/SVG/1.1/DTD/svg11.dtd">
<svg version="1.1" id="Layer_1" xmlns="http://www.w3.org/2000/svg" xmlns:xlink="http://www.w3.org/1999/xlink" x="0px" y="0px"
	 width="24px" height="24px" viewBox="88 88 24 24" enable-background="new 88 88 24 24" xml:space="preserve">
<path fill="#C1C1C1" d="M100,88.063c-6.591,0-11.938,5.346-11.938,11.938c0,6.592,5.346,11.938,11.938,11.938
	c6.592,0,11.938-5.346,11.938-11.938C111.957,93.409,106.611,88.063,100,88.063z M106.82,102.453
	c-0.306,1.858-1.397,2.932-3.218,3.353c-1.188,0.268-2.376,0.326-3.564,0.287c-0.92-0.02-1.858,0.02-2.779-0.133
	c-2.855-0.441-4.062-1.726-4.234-4.618c-0.115-1.917,0.039-3.813,0.402-5.691c0.096-0.498,0.269-0.651,0.786-0.555
	c1.322,0.249,1.322,0.229,1.131,1.532c-0.249,1.667-0.402,3.353-0.115,5.04c0.23,1.342,0.843,1.992,2.185,2.185
	c1.744,0.249,3.506,0.269,5.25,0c1.283-0.192,1.878-0.767,2.126-2.069c0.346-1.935,0.153-3.852-0.191-5.749
	c-0.096-0.575,0-0.786,0.594-0.843c1.284-0.134,1.284-0.153,1.515,1.207C107.052,98.429,107.167,100.441,106.82,102.453z"/>
</svg>
